<svg width="54" height="54" viewBox="0 0 54 54" fill="none" xmlns="http://www.w3.org/2000/svg">
<g clip-path="url(#clip0)">
<path d="M8.64346 13.7212C8.91331 13.7212 9.18316 13.6183 9.38915 13.4123C9.38998 13.4118 9.39286 13.409 9.39533 13.4065C9.80691 13.0003 9.81474 12.3374 9.41099 11.9213C9.00518 11.5035 8.33735 11.4932 7.91918 11.899C7.91465 11.9036 7.90105 11.9167 7.89652 11.9217C7.48577 12.3337 7.48577 13.0007 7.89735 13.4123C8.10375 13.6187 8.3736 13.7212 8.64346 13.7212Z" fill="#017E3C"/>
<path d="M53.7726 27.5031C52.9993 21.6273 50.2752 16.0935 46.1026 11.9209C40.9997 6.81804 34.2159 4.00787 27 4.00787C21.3607 4.00787 15.9616 5.72462 11.3861 8.97232C10.9111 9.30974 10.7994 9.96809 11.1364 10.4431C11.4734 10.9181 12.1318 11.0298 12.6072 10.6928C12.9475 10.4514 13.2928 10.2198 13.6425 9.99693L16.2661 14.5412C15.1356 15.2807 14.0726 16.1413 13.0954 17.1185C12.1272 18.0867 11.2666 19.1529 10.5242 20.2925L5.97998 17.6694C6.45376 16.922 6.96751 16.199 7.52122 15.504C7.88377 15.0483 7.80879 14.3846 7.35313 14.0216C6.89706 13.6587 6.23376 13.7341 5.8708 14.1893C2.82168 18.0179 0.8701 22.6215 0.2274 27.5027C-0.543429 33.3566 0.659575 39.3988 3.61311 44.5145C4.24057 45.6066 5.2557 46.3886 6.47148 46.717C6.88058 46.8278 7.29587 46.8822 7.70868 46.8822C8.52235 46.8822 9.32573 46.6696 10.05 46.2535C11.1422 45.6256 11.9241 44.6109 12.2525 43.3951C12.5808 42.1789 12.4165 40.9083 11.7878 39.8145C9.83659 36.4346 9.07442 32.6002 9.58446 28.7259C10.0916 24.8738 11.8215 21.376 14.5872 18.6104C17.9029 15.2947 22.3112 13.4692 27 13.4692C31.6892 13.4692 36.0979 15.2947 39.4132 18.6104C42.1788 21.3756 43.9084 24.8738 44.4159 28.7259C44.6598 30.5794 44.612 32.4239 44.2824 34.2144L33.3846 30.092C33.186 28.7218 32.5548 27.4532 31.564 26.4624C29.0484 23.9468 24.9553 23.9468 22.4397 26.4624C19.9241 28.978 19.9241 33.0715 22.4397 35.5871C23.6975 36.8449 25.3496 37.4736 27.0016 37.4736C28.6541 37.4736 30.3062 36.8449 31.564 35.5867C31.742 35.4091 31.9088 35.2209 32.0645 35.0243L43.5606 36.9026C43.2039 37.9029 42.7536 38.8768 42.2114 39.8162C40.9165 42.0706 41.6964 44.9582 43.9504 46.2531C45.0421 46.8809 46.3131 47.0453 47.5289 46.717C48.7447 46.3886 49.7598 45.6062 50.386 44.5165C53.3404 39.3992 54.5434 33.3566 53.7726 27.5031ZM9.95978 40.8676C10.3063 41.4711 10.3973 42.1731 10.216 42.8451C10.0343 43.5166 9.60217 44.0778 8.99902 44.4242C8.39546 44.7711 7.69343 44.8622 7.02148 44.6809C6.34994 44.4992 5.78882 44.0671 5.4411 43.4618C3.40506 39.9352 2.28445 36.0621 2.12337 32.0782H7.35643C7.52493 35.1578 8.41276 38.1884 9.95978 40.8676ZM7.49321 28.4507C7.42647 28.9554 7.38115 29.4617 7.35437 29.9684H2.12749C2.15962 29.24 2.22265 28.51 2.31906 27.7783C2.70221 24.8693 3.58963 22.0682 4.92735 19.4978L9.46828 22.1192C8.45973 24.0988 7.78366 26.2437 7.49321 28.4507ZM23.9311 34.0953C22.2382 32.4025 22.2382 29.6475 23.9311 27.9546C25.6244 26.2614 28.3789 26.2618 30.0722 27.9546C30.4273 28.3098 30.7132 28.7181 30.9238 29.1618L27.915 28.0234C27.1697 27.7416 26.3528 27.7944 25.6145 28.173C24.816 28.5821 24.2001 29.3447 23.9678 30.2123C23.7354 31.0796 23.8874 32.0473 24.3744 32.8013C24.8247 33.4979 25.5053 33.9528 26.2918 34.0813L29.4653 34.5996C27.7745 35.7659 25.4348 35.5986 23.9311 34.0953ZM31.7556 32.8363C31.7527 32.8359 31.7498 32.8355 31.7469 32.8346L26.6321 31.9991C26.3878 31.9592 26.2333 31.7907 26.1463 31.6568C25.9799 31.3989 25.9259 31.0544 26.0054 30.7578C26.085 30.4612 26.3037 30.1901 26.5769 30.05C26.6712 30.0018 26.7993 29.9552 26.9427 29.9552C27.0148 29.9552 27.091 29.9672 27.1685 29.9964L32.0023 31.8248C32.0122 31.829 32.0225 31.8327 32.0328 31.8364L36.8959 33.6759L31.7556 32.8363ZM28.0547 11.3878V6.14114C31.7601 6.2944 35.3201 7.25475 38.5332 8.9373L35.9088 13.4832C33.4884 12.2509 30.8249 11.5332 28.0547 11.3878ZM15.4676 8.93854C18.6976 7.24609 22.2555 6.29276 25.9453 6.13991V11.3878C23.1751 11.5332 20.5116 12.2509 18.0912 13.4832L15.4676 8.93854ZM37.7339 14.5412L40.3591 9.99446C41.8793 10.9643 43.3052 12.1067 44.6108 13.4123C45.916 14.7175 47.0572 16.1425 48.0262 17.6657L43.4762 20.2929C42.7338 19.1529 41.8727 18.0867 40.9046 17.1185C39.9273 16.1413 38.8644 15.2807 37.7339 14.5412ZM44.5317 22.1192L49.0817 19.4924C50.4136 22.0484 51.2941 24.8375 51.6813 27.7783C51.7773 28.5096 51.8403 29.24 51.8729 29.9684H46.646C46.6192 29.4617 46.5735 28.9554 46.5072 28.4507C46.2167 26.2437 45.5406 24.0988 44.5317 22.1192ZM48.5576 43.4635C48.2112 44.0671 47.65 44.4992 46.9785 44.6805C46.3069 44.8618 45.6045 44.7711 45.0014 44.4242C43.7559 43.7086 43.3246 42.113 44.0394 40.8696C44.7039 39.7185 45.2465 38.5028 45.663 37.2462L46.9484 37.4563C47.0061 37.4658 47.0629 37.4703 47.1194 37.4703C47.5891 37.4703 48.0122 37.1556 48.1374 36.6884C48.2779 36.1647 47.9986 35.6205 47.4918 35.4285L46.2707 34.9671C46.4651 34.015 46.5904 33.0493 46.644 32.0782H51.8766C51.7155 36.0625 50.5949 39.9356 48.5576 43.4635Z" fill="#017E3C"/>
<path d="M33.3289 41.3961H20.671C20.0885 41.3961 19.6163 41.8682 19.6163 42.4507V45.8262C19.6163 46.4087 20.0885 46.8808 20.671 46.8808H33.3289C33.9115 46.8808 34.384 46.4087 34.384 45.8262V42.4507C34.384 41.8682 33.9115 41.3961 33.3289 41.3961ZM32.2742 44.7715H21.7261V43.5054H32.2742V44.7715Z" fill="#017E3C"/>
<path d="M11.4091 29.9684C10.8266 29.9684 10.3544 30.4405 10.3544 31.023C10.3544 31.6056 10.8266 32.0777 11.4091 32.0777H11.4342C12.0168 32.0777 12.4889 31.6056 12.4889 31.023C12.4889 30.4405 12.0168 29.9684 11.4342 29.9684H11.4091Z" fill="#017E3C"/>
<path d="M20.1322 17.0159L20.1198 16.9941C19.8281 16.4898 19.1829 16.3168 18.6787 16.6085C18.1744 16.8998 18.0014 17.5449 18.293 18.0496L18.3054 18.071C18.5007 18.4093 18.8554 18.5984 19.2196 18.5984C19.3988 18.5984 19.5801 18.5526 19.7461 18.4571C20.2508 18.1654 20.4234 17.5206 20.1322 17.0159Z" fill="#017E3C"/>
<path d="M34.7836 18.6004C35.1482 18.6004 35.5025 18.4113 35.6978 18.0731L35.7101 18.0512C36.0018 17.547 35.8288 16.9018 35.3245 16.6101C34.8203 16.3188 34.1751 16.4915 33.8834 16.9961L33.871 17.018C33.5798 17.5223 33.7524 18.1674 34.2571 18.4587C34.4231 18.5547 34.6044 18.6004 34.7836 18.6004Z" fill="#017E3C"/>
<path d="M42.5907 32.0814C43.1733 32.0814 43.6454 31.6093 43.6454 31.0267C43.6454 30.4442 43.1733 29.9716 42.5907 29.9716H42.566C41.9835 29.9716 41.5109 30.4442 41.5109 31.0267C41.5109 31.6093 41.9835 32.0814 42.566 32.0814H42.5907Z" fill="#017E3C"/>
<path d="M23.3328 47.9359H23.3081C22.7256 47.9359 22.2534 48.4081 22.2534 48.9906C22.2534 49.5732 22.7256 50.0453 23.3081 50.0453H23.3328C23.9154 50.0453 24.3879 49.5732 24.3879 48.9906C24.3879 48.4081 23.9154 47.9359 23.3328 47.9359Z" fill="#017E3C"/>
<path d="M30.6922 47.9359H26.3635C25.7813 47.9359 25.3088 48.4085 25.3088 48.991C25.3088 49.5736 25.7813 50.0457 26.3635 50.0457H30.6922C31.2744 50.0457 31.7469 49.5736 31.7469 48.991C31.7469 48.4085 31.2748 47.9359 30.6922 47.9359Z" fill="#017E3C"/>
</g>
<defs>
<clipPath id="clip0">
<rect width="54" height="54" fill="white"/>
</clipPath>
</defs>
</svg>
