<svg width="724" height="724" viewBox="0 0 724 724" fill="none" xmlns="http://www.w3.org/2000/svg">
<path d="M724 553.715H0V554.077H724V553.715Z" fill="#E6E6E6"/>
<path d="M180.739 575.623H132.782V575.985H180.739V575.623Z" fill="#E6E6E6"/>
<path d="M117.607 575.623H89.8194V575.985H117.607V575.623Z" fill="#E6E6E6"/>
<path d="M304.876 580.952H277.089V581.314H304.876V580.952Z" fill="#E6E6E6"/>
<path d="M449.763 589.032H387.224V589.394H449.763V589.032Z" fill="#E6E6E6"/>
<path d="M374.337 589.032H365.171V589.394H374.337V589.032Z" fill="#E6E6E6"/>
<path d="M656.451 580.952H520.802V581.314H656.451V580.952Z" fill="#E6E6E6"/>
<path d="M343.176 489.134H63.5817C61.3914 489.131 59.2921 488.258 57.7446 486.708C56.1972 485.157 55.3281 483.057 55.3281 480.866V87.8357C55.3472 85.6579 56.2247 83.5756 57.7701 82.0411C59.3154 80.5066 61.4038 79.6437 63.5817 79.64H343.176C345.369 79.64 347.472 80.5111 349.022 82.0617C350.573 83.6122 351.444 85.7153 351.444 87.9081V480.866C351.444 483.059 350.573 485.162 349.022 486.713C347.472 488.263 345.369 489.134 343.176 489.134ZM63.5817 79.9296C61.4874 79.9335 59.4801 80.7681 58.0006 82.2504C56.5211 83.7326 55.6901 85.7414 55.6901 87.8357V480.866C55.6901 482.961 56.5211 484.969 58.0006 486.452C59.4801 487.934 61.4874 488.769 63.5817 488.772H343.176C345.272 488.769 347.28 487.934 348.762 486.453C350.244 484.971 351.078 482.962 351.082 480.866V87.8357C351.078 85.74 350.244 83.7313 348.762 82.2495C347.28 80.7676 345.272 79.9334 343.176 79.9296H63.5817Z" fill="#E6E6E6"/>
<path d="M656.393 489.134H376.784C374.592 489.131 372.492 488.258 370.942 486.709C369.392 485.159 368.52 483.058 368.516 480.866V87.8357C368.539 85.6566 369.42 83.5743 370.967 82.0402C372.515 80.5061 374.605 79.6437 376.784 79.64H656.393C658.568 79.6476 660.653 80.5121 662.195 82.0462C663.737 83.5803 664.613 85.6604 664.632 87.8357V480.866C664.632 483.054 663.765 485.153 662.221 486.703C660.676 488.252 658.581 489.127 656.393 489.134ZM376.784 79.9296C374.688 79.9334 372.68 80.7676 371.198 82.2495C369.716 83.7313 368.882 85.74 368.878 87.8357V480.866C368.882 482.962 369.716 484.971 371.198 486.453C372.68 487.934 374.688 488.769 376.784 488.772H656.393C658.488 488.769 660.497 487.934 661.979 486.453C663.461 484.971 664.295 482.962 664.299 480.866V87.8357C664.295 85.74 663.461 83.7313 661.979 82.2495C660.497 80.7676 658.488 79.9334 656.393 79.9296H376.784Z" fill="#E6E6E6"/>
<path d="M387.195 430.027H355.354V556.336H387.195V430.027Z" fill="#E0E0E0"/>
<path d="M381.143 556.336H387.195V539.134H374.8L381.143 556.336Z" fill="#FAFAFA"/>
<path d="M247.666 430.027H215.824V556.336H247.666V430.027Z" fill="#E0E0E0"/>
<path d="M387.195 430.027H242.395V545.78H387.195V430.027Z" fill="#FAFAFA"/>
<path d="M381.939 435.718V466.343H247.608V435.718H381.896H381.939ZM382.46 435.153H247.087V466.893H382.504V435.153H382.46Z" fill="#E0E0E0"/>
<path d="M248.433 556.336H242.395V539.134H254.776L248.433 556.336Z" fill="#FAFAFA"/>
<path d="M311.595 451.023C311.595 451.656 311.783 452.275 312.134 452.801C312.486 453.327 312.986 453.737 313.571 453.979C314.155 454.222 314.799 454.285 315.42 454.162C316.04 454.038 316.61 453.733 317.058 453.286C317.506 452.838 317.81 452.268 317.934 451.647C318.057 451.027 317.994 450.383 317.752 449.798C317.509 449.214 317.099 448.714 316.573 448.362C316.047 448.011 315.428 447.823 314.795 447.823C313.946 447.823 313.133 448.16 312.532 448.76C311.932 449.36 311.595 450.174 311.595 451.023Z" fill="#E6E6E6"/>
<path d="M381.939 472.584V503.209H247.608V472.584H381.896H381.939ZM382.46 472.034H247.087V503.774H382.504V472.048L382.46 472.034Z" fill="#E0E0E0"/>
<path d="M311.595 487.976C311.595 488.609 311.783 489.228 312.134 489.754C312.486 490.28 312.986 490.69 313.571 490.932C314.155 491.175 314.799 491.238 315.42 491.115C316.04 490.991 316.61 490.686 317.058 490.239C317.506 489.791 317.81 489.221 317.934 488.6C318.057 487.98 317.994 487.336 317.752 486.751C317.509 486.167 317.099 485.667 316.573 485.315C316.047 484.964 315.428 484.776 314.795 484.776C313.946 484.776 313.133 485.113 312.532 485.713C311.932 486.313 311.595 487.127 311.595 487.976Z" fill="#E6E6E6"/>
<path d="M381.939 509.464V540.104H247.608V509.464H381.896H381.939ZM382.46 508.9H247.087V540.654H382.504V508.9H382.46Z" fill="#E0E0E0"/>
<path d="M311.595 524.784C311.598 525.417 311.788 526.034 312.141 526.558C312.495 527.082 312.996 527.49 313.581 527.73C314.166 527.97 314.809 528.032 315.428 527.907C316.048 527.781 316.617 527.476 317.063 527.027C317.509 526.579 317.813 526.009 317.935 525.389C318.057 524.768 317.993 524.126 317.75 523.542C317.508 522.958 317.098 522.459 316.572 522.108C316.046 521.757 315.428 521.57 314.795 521.57C314.374 521.57 313.956 521.653 313.567 521.815C313.178 521.976 312.825 522.213 312.527 522.512C312.23 522.811 311.995 523.165 311.835 523.555C311.675 523.945 311.593 524.363 311.595 524.784Z" fill="#E6E6E6"/>
<path d="M228.219 356.671H196.378V556.351H228.219V356.671Z" fill="#E0E0E0"/>
<path d="M222.167 556.336H228.219V539.134H215.839L222.167 556.336Z" fill="#FAFAFA"/>
<path d="M109.223 356.671H77.3811V556.351H109.223V356.671Z" fill="#E0E0E0"/>
<path d="M228.219 356.671H103.937V545.795H228.219V356.671Z" fill="#FAFAFA"/>
<path d="M222.862 362V404.817H109.295V362H222.862ZM223.528 361.348H108.6V405.44H223.499V361.363L223.528 361.348Z" fill="#E0E0E0"/>
<path d="M222.862 410.045V523.611H168.764V410.045H222.862ZM223.528 409.379H168.113V524.277H223.528V409.379Z" fill="#E0E0E0"/>
<path d="M163.392 410.045V523.611H109.295V410.045H163.392ZM164.044 409.379H108.6V524.277H164.015V409.379H164.044Z" fill="#E0E0E0"/>
<path d="M109.99 556.336H103.937V539.134H116.332L109.99 556.336Z" fill="#FAFAFA"/>
<path d="M162.871 383.43C162.868 384.067 163.054 384.69 163.406 385.22C163.757 385.751 164.258 386.165 164.845 386.411C165.432 386.656 166.079 386.722 166.704 386.599C167.328 386.477 167.902 386.172 168.353 385.723C168.804 385.274 169.112 384.701 169.237 384.077C169.363 383.453 169.3 382.806 169.057 382.218C168.814 381.63 168.402 381.127 167.873 380.773C167.344 380.419 166.722 380.23 166.086 380.23C165.236 380.23 164.42 380.567 163.818 381.167C163.215 381.766 162.875 382.58 162.871 383.43Z" fill="#E6E6E6"/>
<path d="M174.339 464.127C174.339 464.764 174.528 465.386 174.882 465.915C175.236 466.444 175.739 466.856 176.327 467.099C176.915 467.342 177.562 467.404 178.186 467.279C178.81 467.154 179.383 466.846 179.832 466.395C180.281 465.944 180.586 465.37 180.708 464.746C180.831 464.121 180.765 463.474 180.519 462.887C180.274 462.3 179.86 461.799 179.329 461.448C178.799 461.096 178.176 460.91 177.539 460.913C177.118 460.913 176.701 460.996 176.311 461.158C175.922 461.32 175.569 461.557 175.271 461.855C174.974 462.154 174.739 462.508 174.579 462.898C174.419 463.288 174.337 463.706 174.339 464.127Z" fill="#E6E6E6"/>
<path d="M151.417 464.127C151.42 464.76 151.61 465.377 151.964 465.901C152.317 466.426 152.818 466.834 153.403 467.074C153.988 467.314 154.631 467.375 155.251 467.25C155.87 467.125 156.439 466.819 156.885 466.371C157.331 465.923 157.635 465.352 157.757 464.732C157.879 464.112 157.815 463.469 157.573 462.885C157.33 462.301 156.92 461.802 156.394 461.451C155.868 461.1 155.25 460.913 154.617 460.913C154.196 460.913 153.779 460.996 153.389 461.158C153 461.32 152.647 461.557 152.35 461.855C152.052 462.154 151.817 462.509 151.657 462.898C151.497 463.288 151.415 463.706 151.417 464.127Z" fill="#E6E6E6"/>
<path d="M147.797 300.996H134.374C135.611 307.507 136.39 314.097 136.706 320.718C136.706 327.958 126.483 356.671 141.05 356.671C155.617 356.671 145.394 328.03 145.394 320.718C145.733 314.096 146.536 307.505 147.797 300.996Z" fill="#E0E0E0"/>
<path d="M96.7264 330.361V339.049C96.7417 343.707 98.5986 348.169 101.892 351.462C105.185 354.756 109.648 356.613 114.305 356.628H122.993C127.651 356.613 132.113 354.756 135.406 351.462C138.7 348.169 140.557 343.707 140.572 339.049V330.361H96.7264Z" fill="#F5F5F5"/>
<path d="M283.33 411.609C283.33 421.745 294.668 430.027 308.525 430.027H321.036C334.893 430.027 346.231 421.745 346.231 411.609H283.33Z" fill="#E0E0E0"/>
<path d="M614.835 396.752C607.248 402.949 596.764 414.287 587.178 430.244C580.778 440.873 576.927 451.964 575.233 466.705C575.233 450.053 575.334 432.17 575.392 415.286C577.318 410.942 581.72 400.922 584.876 393.016C595.403 366.619 599.356 360.118 608.812 337.355C621.453 306.947 634.398 270.95 630.691 273.831C623.132 279.696 594.172 333.923 591.045 341.685C582.519 362.397 577.249 384.304 575.421 406.627C575.421 390.699 575.537 376.219 575.595 364.983C575.797 328.334 576.42 316.504 576.724 312.855C577.897 311.001 579.272 308.844 580.083 307.686C586.889 297.839 589.51 289.47 595.91 274.787C605.003 254.008 612.823 217.099 610.535 218.952C601.007 226.713 593.506 243.365 583.631 264.608C573.756 285.85 576.579 298.056 574.624 316.185C574.219 319.747 573.9 333.185 573.669 351.792C571.12 331.954 566.313 318.893 557.552 307.019C546.779 292.409 536.354 282.548 528.708 277.393C521.063 272.239 541.914 308.12 551.876 323.729C560.752 337.688 568.934 349.982 573.596 362.101C573.35 387.34 573.234 419.283 573.234 448.981C570.946 435.457 567.211 420.876 562.229 409.596C556.235 396.042 547.025 375.249 539.684 368.197C537.932 366.503 547.358 406.946 553.411 417.69C559.464 428.434 563.909 438.585 567.717 444.681C568.601 446.129 571.555 451.588 573.234 454.744C573.234 491.046 573.437 523.076 573.756 533.979H575.319C575.218 531.17 575.189 512.693 575.233 488.251C579.012 474.987 587.642 459.841 594.766 446.027C602.527 431.07 622.423 390.598 614.835 396.752Z" fill="#E0E0E0"/>
<path d="M597.213 556.336H551.833L548.401 511.854H600.645L597.213 556.336Z" fill="#F0F0F0"/>
<path d="M604.019 517.037H545.013L543.333 502.022H605.713L604.019 517.037Z" fill="#F5F5F5"/>
<path d="M179.928 109.324H98.7681V198.448H179.928V109.324Z" fill="#E0E0E0"/>
<path d="M188.718 109.324H104.879V198.448H188.718V109.324Z" fill="#F5F5F5"/>
<path d="M181.695 191.426V116.347H111.901V191.426H181.695Z" fill="white"/>
<path d="M164.768 173.21V134.534H128.814V173.21H164.768Z" fill="#F5F5F5"/>
<path d="M593.752 119.706H518.355V202.503H593.752V119.706Z" fill="#E0E0E0"/>
<path d="M601.919 119.706H524.046V202.503H601.919V119.706Z" fill="#F5F5F5"/>
<path d="M595.403 195.972V126.237H530.576V195.972H595.403Z" fill="white"/>
<path d="M562.982 181.333C574.154 181.333 583.211 172.276 583.211 161.104C583.211 149.933 574.154 140.876 562.982 140.876C551.81 140.876 542.754 149.933 542.754 161.104C542.754 172.276 551.81 181.333 562.982 181.333Z" fill="#F5F5F5"/>
<path d="M264.246 162.466H204.038V228.581H264.246V162.466Z" fill="#E0E0E0"/>
<path d="M270.762 162.466H208.57V228.581H270.762V162.466Z" fill="#F5F5F5"/>
<path d="M265.549 223.368V167.678H213.783V223.368H265.549Z" fill="white"/>
<path d="M239.673 181.434L225.512 205.964H253.834L239.673 181.434Z" fill="#F5F5F5"/>
<path d="M362 619.107C517.055 619.107 642.753 611.768 642.753 602.715C642.753 593.663 517.055 586.324 362 586.324C206.945 586.324 81.2473 593.663 81.2473 602.715C81.2473 611.768 206.945 619.107 362 619.107Z" fill="#F5F5F5"/>
<path d="M505.714 236.647L491.35 230.855C491.35 230.855 472.395 265.418 466.965 267.17C459.581 269.545 444.29 276.148 435.225 277.306C433.995 278.754 431.982 283.258 432.17 284.894C444.348 288.963 471.107 283.562 476.841 279.305C489.887 269.647 505.714 236.647 505.714 236.647Z" fill="#88716D"/>
<path d="M510.13 228.784C512.809 238.674 498.3 258.569 498.3 258.569L479.288 247.912C479.288 247.912 482.85 239.731 487.194 231.405C494.159 217.953 507.075 217.504 510.13 228.784Z" fill="#017E3C"/>
<path opacity="0.2" d="M510.13 228.784C512.809 238.674 498.3 258.569 498.3 258.569L479.288 247.912C479.288 247.912 482.85 239.731 487.194 231.405C494.159 217.953 507.075 217.504 510.13 228.784Z" fill="black"/>
<path opacity="0.2" d="M486.832 252.169L494.318 256.368L495.636 233.389C491.277 236.734 488.208 246.812 486.832 252.169Z" fill="black"/>
<path d="M497.62 221.341C497.62 221.341 482.821 254.269 491.451 315.577H549.762C550.689 306.628 547.619 262.957 558.725 220.791C552.329 219.541 545.857 218.714 539.351 218.315C531.1 217.837 522.827 217.837 514.576 218.315C508.856 218.896 503.188 219.907 497.62 221.341Z" fill="#017E3C"/>
<path opacity="0.2" d="M497.62 221.341C497.62 221.341 482.821 254.269 491.451 315.577H549.762C550.689 306.628 547.619 262.957 558.725 220.791C552.329 219.541 545.857 218.714 539.351 218.315C531.1 217.837 522.827 217.837 514.576 218.315C508.856 218.896 503.188 219.907 497.62 221.341Z" fill="black"/>
<g style="mix-blend-mode:multiply">
<path d="M484.095 604.019C484.008 605.583 506.119 606.842 533.472 606.842C560.825 606.842 583.095 605.583 583.182 604.019C583.269 602.455 561.172 601.21 533.805 601.21C506.438 601.21 484.197 602.469 484.095 604.019Z" fill="#E8ECF1"/>
</g>
<path d="M523.018 562.929L512.676 566.932L521.585 589.946L531.927 585.943L523.018 562.929Z" fill="#88716D"/>
<path d="M569.136 592.884H558.233L554.237 567.645H565.14L569.136 592.884Z" fill="#88716D"/>
<path d="M557.48 591.624H569.73C569.943 591.624 570.148 591.7 570.31 591.838C570.471 591.976 570.579 592.167 570.613 592.377L572.192 602.064C572.225 602.307 572.206 602.554 572.135 602.789C572.064 603.024 571.943 603.241 571.781 603.425C571.619 603.609 571.419 603.756 571.195 603.856C570.971 603.956 570.728 604.007 570.483 604.004C566.211 603.932 564.155 603.671 558.769 603.671C555.453 603.671 548.633 604.019 544.028 604.019C539.423 604.019 539.119 599.501 541.016 599.081C549.53 597.242 552.832 594.737 555.67 592.304C556.17 591.865 556.814 591.623 557.48 591.624Z" fill="#33383A"/>
<path d="M521.28 587.888L532.864 584.5C533.071 584.441 533.291 584.456 533.489 584.54C533.686 584.624 533.849 584.773 533.95 584.963L538.294 593.651C538.395 593.871 538.446 594.111 538.445 594.354C538.444 594.596 538.389 594.835 538.286 595.055C538.183 595.274 538.033 595.468 537.846 595.623C537.66 595.778 537.442 595.891 537.208 595.953C532.994 597.112 530.171 597.821 524.9 599.356C521.266 600.413 517.559 602.136 513.968 603.28C511.477 604.077 505.627 604.106 502.601 604.106C498.126 604.106 497.127 599.385 499.053 599.168C503.904 598.632 504.556 598.878 507.234 597.532C511.618 595.616 515.59 592.872 518.934 589.452C519.565 588.733 520.374 588.194 521.28 587.888Z" fill="#33383A"/>
<path d="M437.05 277.249L425.06 272.224L420.123 285.517C425.037 286.265 430.036 286.265 434.95 285.517L437.05 277.249Z" fill="#88716D"/>
<path d="M416.141 271.876L415.822 280.709L420.123 285.488L425.06 272.195L416.141 271.876Z" fill="#88716D"/>
<path d="M524.437 564.883L514.063 568.888L518.657 580.789L529.032 576.784L524.437 564.883Z" fill="#CF6F64"/>
<path d="M565.14 567.645H554.237L556.307 580.662H567.211L565.14 567.645Z" fill="#CF6F64"/>
<path opacity="0.2" d="M489.598 298.998C489.815 301.618 490.061 304.297 490.38 307.048L533.733 292.974C540.503 290.967 546.387 286.713 550.414 280.912C550.587 277.046 550.805 272.977 551.138 268.734C551.283 266.678 551.456 264.564 551.645 262.421C551.833 260.278 552.093 257.903 552.369 255.615L489.598 298.998Z" fill="black"/>
<path d="M503.759 251.503L502.311 251.329C503.166 244.089 508.567 238.384 514.257 238.529V239.977C509.276 239.876 504.527 245.016 503.759 251.503Z" fill="white"/>
<path d="M511.477 264.868H511.231V263.42C516.212 263.608 520.889 258.41 521.656 251.938L523.104 252.111C522.337 259.192 517.11 264.868 511.477 264.868Z" fill="white"/>
<path d="M538.54 190.412C536.499 198.39 534.095 213.001 539.351 218.315C539.351 218.315 535.673 226.409 520.86 226.409C507.321 226.409 514.576 218.315 514.576 218.315C523.582 216.201 523.742 209.627 522.554 203.401L538.54 190.412Z" fill="#88716D"/>
<path d="M532.024 195.712L522.569 203.401C522.862 204.831 523.031 206.285 523.075 207.745C525.841 210.496 531.387 203.531 531.952 199.969C532.239 198.566 532.263 197.123 532.024 195.712Z" fill="#CF6F64"/>
<path d="M506.308 190.311C506.966 191.451 507.852 192.443 508.911 193.226C509.969 194.008 511.178 194.563 512.462 194.857C515.937 195.625 517.675 192.425 516.719 189.21C515.864 186.314 513.012 182.419 509.479 183.085C508.722 183.241 508.014 183.576 507.413 184.062C506.812 184.548 506.337 185.171 506.026 185.878C505.715 186.586 505.579 187.358 505.628 188.129C505.677 188.9 505.91 189.648 506.308 190.311Z" fill="#CF6F64"/>
<path d="M512.056 164.782C506.641 167.258 504.729 188.776 511.535 191.961C518.341 195.147 522.308 160.076 512.056 164.782Z" fill="#33383A"/>
<path d="M540.191 178.408C538.888 189.21 538.743 195.567 532.951 201.098C531.156 202.934 528.889 204.238 526.4 204.866C523.911 205.494 521.296 205.422 518.845 204.658C516.395 203.894 514.202 202.468 512.511 200.536C510.82 198.605 509.695 196.244 509.262 193.713C507.51 184.012 509.928 167.982 520.759 163.682C523.034 162.678 525.537 162.301 528.008 162.591C530.478 162.88 532.826 163.824 534.808 165.327C536.791 166.829 538.335 168.834 539.281 171.134C540.228 173.434 540.542 175.946 540.191 178.408Z" fill="#88716D"/>
<path d="M522.395 170.372C530.417 168.33 536.31 166.94 534.196 173.615C531.402 182.535 528.042 191.165 532.545 191.556C535.297 191.802 547.46 186.647 545.911 181.42C544.564 176.873 550.254 175.628 551.268 173.326C555.018 164.985 544.289 166.086 546.2 161.018C548.111 155.95 537.512 147.783 531.72 151.852C522.294 158.426 506.119 158.324 514.619 147.508C520.715 139.79 509.841 141.368 509.841 141.368C509.841 141.368 516.415 145.263 505.352 151.287C493.652 157.716 504.382 174.991 522.395 170.372Z" fill="#33383A"/>
<path d="M544.448 190.311C542.864 192.602 540.485 194.223 537.773 194.857C534.196 195.625 532.821 192.425 534.167 189.21C535.369 186.314 538.671 182.419 542.088 183.085C545.505 183.751 546.287 187.473 544.448 190.311Z" fill="#88716D"/>
<path d="M491.451 315.577C491.451 315.577 481.663 403.181 480.895 436.427C480.113 471.005 514.069 578.896 514.069 578.896L531.445 571.656C531.445 571.656 511.173 473.076 514.069 439.12C517.139 402.095 529.823 315.635 529.823 315.635L491.451 315.577Z" fill="#017E3C"/>
<path opacity="0.2" d="M515.778 339.628C507.973 355.817 513.229 387.832 517.457 406.801C519.065 393.407 520.976 378.869 522.786 365.417C522.612 344.74 521.005 328.768 515.778 339.628Z" fill="black"/>
<path d="M530.678 565.922C530.764 565.922 532.734 571.453 532.734 571.453L512.693 579.881L509.537 574.002L530.678 565.922Z" fill="#017E3C"/>
<path d="M512.143 315.577C512.143 315.577 519.629 398.895 524.581 430.099C530.026 464.287 551.369 578.143 551.369 578.143H571.337C571.337 578.143 559.377 467.052 557.118 433.198C554.656 396.477 549.762 315.577 549.762 315.577H512.143Z" fill="#017E3C"/>
<path d="M571.641 572.945C571.728 572.945 572.307 578.519 572.307 578.519H550.356L548.792 572.119L571.641 572.945Z" fill="#017E3C"/>
<path opacity="0.2" d="M563.996 566.342C563.951 566.342 563.907 566.326 563.872 566.297C563.838 566.268 563.815 566.227 563.808 566.182C563.692 565.169 552.904 464.822 550.877 434.414C548.676 401.429 544.245 328.262 544.202 327.523C544.2 327.499 544.203 327.475 544.211 327.452C544.218 327.429 544.231 327.408 544.247 327.391C544.264 327.373 544.283 327.359 544.306 327.349C544.328 327.34 544.351 327.335 544.376 327.335C544.423 327.335 544.469 327.353 544.504 327.385C544.539 327.417 544.56 327.461 544.564 327.509C544.564 328.247 549.038 401.357 551.239 434.4C553.266 464.808 564.054 565.082 564.155 566.168C564.159 566.192 564.158 566.216 564.152 566.24C564.147 566.264 564.136 566.286 564.121 566.305C564.106 566.324 564.087 566.34 564.065 566.351C564.044 566.362 564.02 566.369 563.996 566.371V566.342Z" fill="black"/>
<path d="M523.626 181.42C523.626 182.303 523.076 183.013 522.496 183.013C521.917 183.013 521.497 182.303 521.555 181.42C521.613 180.537 522.105 179.827 522.685 179.827C523.264 179.827 523.684 180.551 523.626 181.42Z" fill="#33383A"/>
<path d="M513.692 181.42C513.692 182.303 513.128 183.013 512.563 183.013C511.998 183.013 511.564 182.303 511.607 181.42C511.651 180.537 512.172 179.827 512.751 179.827C513.33 179.827 513.75 180.551 513.692 181.42Z" fill="#33383A"/>
<path d="M516.82 181.869C515.612 184.566 514.054 187.093 512.187 189.384C513.635 190.832 516.342 190.166 516.342 190.166L516.82 181.869Z" fill="#DF5753"/>
<path d="M517.081 193.858C517.047 193.858 517.014 193.851 516.983 193.838C516.952 193.825 516.924 193.805 516.901 193.781C516.878 193.757 516.86 193.728 516.849 193.696C516.838 193.665 516.833 193.631 516.835 193.598C516.838 193.527 516.869 193.461 516.92 193.412C516.971 193.364 517.039 193.337 517.11 193.337C518.217 193.345 519.312 193.104 520.315 192.633C521.317 192.162 522.201 191.472 522.902 190.615C522.952 190.571 523.016 190.547 523.083 190.547C523.149 190.547 523.214 190.571 523.264 190.615C523.311 190.663 523.337 190.728 523.337 190.796C523.337 190.863 523.311 190.928 523.264 190.977C522.514 191.888 521.569 192.62 520.499 193.119C519.429 193.617 518.261 193.87 517.081 193.858Z" fill="#33383A"/>
<path d="M525.392 178.756C525.323 178.791 525.246 178.81 525.168 178.81C525.09 178.81 525.013 178.791 524.943 178.756C524.402 178.405 523.785 178.188 523.144 178.12C522.502 178.052 521.854 178.136 521.251 178.365C521.192 178.394 521.128 178.411 521.063 178.416C520.997 178.42 520.931 178.411 520.869 178.389C520.807 178.368 520.75 178.334 520.701 178.29C520.652 178.246 520.613 178.192 520.585 178.133C520.531 178.004 520.53 177.859 520.581 177.73C520.633 177.6 520.733 177.495 520.86 177.438C521.617 177.129 522.438 177.007 523.252 177.082C524.066 177.158 524.85 177.429 525.537 177.872C525.593 177.91 525.64 177.958 525.677 178.015C525.713 178.071 525.739 178.134 525.751 178.2C525.763 178.266 525.762 178.334 525.747 178.399C525.733 178.465 525.706 178.527 525.667 178.582C525.594 178.665 525.499 178.725 525.392 178.756Z" fill="#33383A"/>
<path d="M509.855 175.86C509.778 175.841 509.708 175.801 509.653 175.744C509.604 175.697 509.566 175.64 509.54 175.578C509.514 175.516 509.5 175.449 509.5 175.382C509.5 175.314 509.514 175.248 509.54 175.185C509.566 175.123 509.604 175.067 509.653 175.02C510.208 174.397 510.899 173.911 511.672 173.6C512.446 173.289 513.281 173.16 514.112 173.224C514.179 173.235 514.243 173.258 514.3 173.294C514.357 173.33 514.406 173.377 514.444 173.433C514.482 173.489 514.508 173.552 514.521 173.618C514.533 173.684 514.532 173.752 514.518 173.818C514.487 173.952 514.408 174.07 514.296 174.15C514.184 174.23 514.047 174.266 513.91 174.252C513.252 174.211 512.593 174.32 511.983 174.571C511.374 174.821 510.829 175.208 510.391 175.7C510.325 175.774 510.24 175.827 510.146 175.855C510.051 175.883 509.951 175.885 509.855 175.86Z" fill="#33383A"/>
<path d="M564.329 235.039L549.27 231.028C549.27 231.028 534.5 267.388 529.273 269.748C522.178 272.991 504.208 284.228 496.563 289.542C496.143 291.352 496.476 296.145 497.431 297.463C510.463 295.088 535.412 285.488 540.625 280.608C552.513 269.473 564.329 235.039 564.329 235.039Z" fill="#88716D"/>
<path d="M553.817 593.535C553.082 593.593 552.35 593.394 551.746 592.971C551.559 592.802 551.42 592.588 551.341 592.349C551.263 592.111 551.247 591.856 551.297 591.609C551.306 591.455 551.357 591.307 551.443 591.179C551.53 591.052 551.65 590.95 551.789 590.885C553.006 590.263 556.408 592.42 556.799 592.666C556.842 592.693 556.876 592.733 556.894 592.78C556.912 592.827 556.915 592.879 556.901 592.927C556.888 592.978 556.863 593.024 556.828 593.062C556.792 593.1 556.748 593.128 556.698 593.144C555.754 593.376 554.788 593.507 553.817 593.535ZM552.369 591.276C552.259 591.252 552.145 591.252 552.036 591.276C551.98 591.304 551.934 591.348 551.903 591.402C551.872 591.456 551.858 591.518 551.862 591.58C551.823 591.749 551.83 591.925 551.88 592.09C551.931 592.255 552.025 592.404 552.151 592.522C552.716 593.028 554.135 593.086 556.003 592.724C554.891 591.992 553.638 591.499 552.325 591.276H552.369Z" fill="#017E3C"/>
<path d="M556.626 593.144C556.588 593.156 556.547 593.156 556.51 593.144C555.424 592.536 553.382 590.147 553.686 588.931C553.732 588.738 553.841 588.566 553.996 588.442C554.15 588.319 554.342 588.251 554.541 588.25C554.735 588.224 554.933 588.24 555.12 588.298C555.307 588.355 555.48 588.453 555.627 588.583C556.828 589.611 556.901 592.768 556.901 592.927C556.908 592.975 556.899 593.023 556.875 593.065C556.852 593.107 556.815 593.14 556.77 593.159C556.722 593.169 556.671 593.164 556.626 593.144ZM554.685 588.728H554.584C554.251 588.728 554.208 588.916 554.193 588.988C554.019 589.698 555.308 591.508 556.379 592.362C556.375 591.139 555.996 589.947 555.293 588.945C555.125 588.798 554.908 588.721 554.685 588.728Z" fill="#017E3C"/>
<path d="M515.372 591.725C514.486 592.034 513.521 592.034 512.635 591.725C512.434 591.616 512.264 591.458 512.14 591.266C512.016 591.074 511.942 590.853 511.926 590.625C511.908 590.482 511.926 590.336 511.979 590.202C512.032 590.068 512.119 589.949 512.23 589.857C513.388 588.815 518.123 589.857 518.659 590.06C518.71 590.073 518.755 590.103 518.787 590.145C518.818 590.187 518.835 590.239 518.833 590.292C518.835 590.346 518.821 590.4 518.793 590.446C518.764 590.493 518.723 590.529 518.674 590.552C517.607 591.034 516.503 591.426 515.372 591.725ZM513.012 590.002C512.846 590.035 512.692 590.11 512.563 590.219C512.517 590.254 512.481 590.301 512.461 590.355C512.44 590.408 512.436 590.467 512.447 590.523C512.457 590.675 512.504 590.823 512.585 590.952C512.666 591.081 512.778 591.187 512.911 591.262C513.678 591.667 515.459 591.349 517.761 590.379C516.211 589.987 514.605 589.86 513.012 590.002Z" fill="#017E3C"/>
<path d="M518.63 590.552H518.514C517.066 590.292 514.17 588.626 514.083 587.381C514.083 587.092 514.214 586.686 514.909 586.454C515.144 586.371 515.393 586.335 515.642 586.35C515.89 586.365 516.134 586.43 516.357 586.541C517.921 587.309 518.746 590.089 518.789 590.219C518.8 590.263 518.798 590.309 518.786 590.352C518.773 590.395 518.749 590.434 518.717 590.465C518.695 590.501 518.666 590.531 518.63 590.552ZM515.198 586.889H515.054C514.605 587.048 514.605 587.236 514.605 587.294C514.605 588.047 516.704 589.423 518.167 589.886C517.83 588.723 517.117 587.705 516.14 586.99C515.849 586.842 515.514 586.806 515.198 586.889Z" fill="#017E3C"/>
<path d="M497.793 288.688L482.691 295.638L480.939 299.982L486.514 303.732C486.514 303.732 496.939 302.603 499.908 295.899L497.793 288.688Z" fill="#88716D"/>
<path d="M498.431 297.709C498.093 294.807 497.135 292.012 495.621 289.513L498.011 287.718C499.808 290.597 500.954 293.834 501.37 297.202L498.431 297.709Z" fill="#33383A"/>
<path d="M501.008 290.744C501.327 291.246 501.484 291.834 501.457 292.429C501.43 293.023 501.221 293.595 500.857 294.066C500.494 294.538 499.994 294.885 499.426 295.063C498.858 295.24 498.249 295.237 497.682 295.056C497.116 294.875 496.618 294.524 496.258 294.05C495.898 293.576 495.693 293.003 495.67 292.408C495.648 291.813 495.809 291.226 496.132 290.726C496.454 290.227 496.923 289.838 497.475 289.614C498.094 289.299 498.812 289.241 499.474 289.452C500.135 289.664 500.687 290.128 501.008 290.744Z" fill="#33383A"/>
<path d="M472.482 301.256L474.495 303.284L488.048 297.492L482.691 295.638L472.482 301.256Z" fill="#88716D"/>
<path opacity="0.2" d="M530.678 565.922C530.764 565.922 532.734 571.453 532.734 571.453L512.693 579.881L509.537 574.002L530.678 565.922Z" fill="black"/>
<path opacity="0.2" d="M571.641 572.945C571.728 572.945 572.307 578.519 572.307 578.519H550.356L548.792 572.119L571.641 572.945Z" fill="black"/>
<path d="M568.253 230.869C572.235 243.713 556.669 261.277 556.669 261.277L535.166 252.502C537.715 245.079 540.654 237.795 543.97 230.681C550.573 216.447 564.228 217.91 568.253 230.869Z" fill="#017E3C"/>
<path opacity="0.2" d="M568.253 230.869C572.235 243.713 556.669 261.277 556.669 261.277L535.166 252.502C537.715 245.079 540.654 237.795 543.97 230.681C550.573 216.447 564.228 217.91 568.253 230.869Z" fill="black"/>
<path d="M354.586 102.185H345.334V103.677H354.586V102.185Z" fill="#017E3C"/>
<path d="M474.362 161.215L473.242 186.067L474.732 186.134L475.852 161.282L474.362 161.215Z" fill="#017E3C"/>
<path d="M471.483 108.875H300.619L284.72 464.678H455.584L471.483 108.875Z" fill="#017E3C"/>
<path opacity="0.56" d="M466.386 113.769H295.522L279.623 469.572H450.487L466.386 113.769Z" fill="#FAFAFA"/>
<path opacity="0.07" d="M461.289 118.649H290.425L274.512 474.452H445.376L461.289 118.649Z" fill="#017E3C"/>
<path d="M441.843 273.831H296L294.784 301.054H440.626L441.843 273.831Z" fill="white"/>
<path d="M376.205 253.965H296.883L296.348 266.142H375.669L376.205 253.965Z" fill="#017E3C"/>
<path d="M438.556 347.303H292.713L291.497 374.525H437.339L438.556 347.303Z" fill="white"/>
<path opacity="0.47" d="M411.811 411.29H313.738L312.276 443.913H410.349L411.811 411.29Z" fill="#017E3C"/>
<path d="M405.252 448.981H307.179C307.136 448.992 307.091 448.992 307.048 448.981C307.034 448.939 307.034 448.893 307.048 448.851L308.496 416.213C308.496 416.191 308.501 416.169 308.51 416.149C308.519 416.128 308.532 416.11 308.548 416.095C308.564 416.08 308.584 416.069 308.605 416.062C308.626 416.054 308.648 416.052 308.67 416.054H406.743C406.761 416.045 406.781 416.04 406.801 416.04C406.821 416.04 406.841 416.045 406.859 416.054C406.869 416.071 406.875 416.091 406.875 416.112C406.875 416.132 406.869 416.152 406.859 416.17L405.44 448.88C405.423 448.914 405.395 448.942 405.362 448.96C405.328 448.978 405.29 448.986 405.252 448.981ZM307.352 448.634H405.078L406.526 416.343H308.8L307.352 448.634Z" fill="white"/>
<path d="M359.075 327.436H293.596L293.061 339.628H358.525L359.075 327.436Z" fill="#017E3C"/>
<path d="M409.943 185.894C409.569 193.817 406.752 201.429 401.878 207.687C398.27 212.413 393.627 216.25 388.306 218.903C382.985 221.556 377.126 222.955 371.18 222.992C366.375 223.029 361.614 222.081 357.189 220.208C352.764 218.335 348.77 215.575 345.451 212.1C342.133 208.624 339.562 204.506 337.896 200C336.229 195.493 335.503 190.692 335.762 185.894C336.271 175.938 340.565 166.552 347.765 159.656C354.965 152.761 364.527 148.876 374.496 148.796C379.305 148.752 384.071 149.693 388.502 151.563C392.932 153.433 396.932 156.192 400.254 159.669C403.576 163.146 406.15 167.267 407.816 171.777C409.483 176.288 410.207 181.093 409.943 185.894Z" fill="white"/>
<path d="M413.433 156.558C413.338 158.664 412.589 160.689 411.29 162.35C410.328 163.605 409.093 164.624 407.677 165.329C406.262 166.035 404.704 166.407 403.123 166.419C401.591 166.428 400.08 166.062 398.722 165.353C397.364 164.643 396.201 163.612 395.333 162.35C394.184 160.644 393.615 158.613 393.711 156.558C393.851 153.914 394.994 151.424 396.907 149.594C398.82 147.764 401.359 146.733 404.006 146.711C405.284 146.7 406.549 146.95 407.726 147.446C408.903 147.942 409.966 148.674 410.849 149.596C411.732 150.519 412.417 151.612 412.861 152.81C413.306 154.007 413.5 155.282 413.433 156.558Z" fill="#017E3C"/>
<path d="M311.711 287.442C311.641 288.609 311.132 289.706 310.286 290.513C309.439 291.319 308.319 291.774 307.15 291.786C306.585 291.793 306.026 291.684 305.505 291.466C304.985 291.248 304.514 290.925 304.124 290.518C303.733 290.111 303.43 289.628 303.233 289.099C303.036 288.57 302.95 288.006 302.98 287.442C303.042 286.273 303.55 285.172 304.397 284.365C305.245 283.557 306.37 283.104 307.541 283.098C308.104 283.094 308.663 283.204 309.183 283.423C309.702 283.642 310.172 283.965 310.562 284.372C310.953 284.778 311.256 285.26 311.453 285.789C311.651 286.317 311.739 286.879 311.711 287.442Z" fill="#33383A"/>
<path d="M331.23 287.442C331.164 288.611 330.656 289.71 329.808 290.516C328.961 291.323 327.839 291.777 326.669 291.786C326.106 291.791 325.548 291.681 325.029 291.462C324.51 291.242 324.041 290.92 323.652 290.513C323.263 290.106 322.961 289.623 322.765 289.095C322.569 288.567 322.483 288.005 322.513 287.442C322.576 286.276 323.081 285.177 323.926 284.37C324.771 283.562 325.891 283.108 327.06 283.098C327.624 283.092 328.184 283.201 328.704 283.419C329.225 283.637 329.695 283.96 330.086 284.367C330.477 284.774 330.78 285.257 330.977 285.786C331.174 286.315 331.26 286.879 331.23 287.442Z" fill="#33383A"/>
<path d="M350.764 287.442C350.697 288.611 350.189 289.71 349.342 290.516C348.495 291.323 347.372 291.777 346.202 291.786C345.639 291.791 345.08 291.681 344.56 291.462C344.041 291.243 343.571 290.92 343.181 290.513C342.791 290.107 342.487 289.624 342.29 289.096C342.092 288.568 342.004 288.006 342.032 287.442C342.098 286.274 342.607 285.175 343.454 284.369C344.301 283.562 345.423 283.108 346.593 283.098C347.158 283.092 347.717 283.201 348.238 283.419C348.758 283.637 349.229 283.96 349.619 284.367C350.01 284.774 350.314 285.257 350.51 285.786C350.707 286.315 350.793 286.879 350.764 287.442Z" fill="#33383A"/>
<path d="M308.424 360.914C308.354 362.081 307.845 363.178 306.999 363.984C306.152 364.79 305.032 365.245 303.863 365.258C303.299 365.263 302.74 365.152 302.221 364.933C301.701 364.714 301.232 364.392 300.841 363.985C300.451 363.578 300.148 363.096 299.95 362.568C299.753 362.04 299.665 361.477 299.693 360.914C299.759 359.746 300.267 358.647 301.114 357.84C301.961 357.033 303.084 356.579 304.254 356.57C304.818 356.565 305.376 356.676 305.896 356.895C306.415 357.114 306.885 357.436 307.275 357.843C307.666 358.25 307.969 358.732 308.166 359.26C308.364 359.788 308.452 360.351 308.424 360.914Z" fill="#33383A"/>
<path d="M327.943 360.914C327.877 362.08 327.371 363.177 326.527 363.983C325.683 364.789 324.564 365.245 323.396 365.258C322.832 365.265 322.272 365.156 321.752 364.937C321.231 364.719 320.761 364.397 320.37 363.989C319.979 363.582 319.676 363.099 319.479 362.57C319.283 362.041 319.196 361.478 319.226 360.914C319.292 359.746 319.801 358.647 320.648 357.84C321.495 357.033 322.617 356.579 323.787 356.57C324.35 356.565 324.909 356.676 325.427 356.895C325.946 357.114 326.415 357.437 326.804 357.844C327.193 358.251 327.495 358.733 327.691 359.261C327.887 359.789 327.973 360.352 327.943 360.914Z" fill="#33383A"/>
<path d="M347.52 360.914C347.454 362.082 346.946 363.181 346.098 363.988C345.251 364.795 344.129 365.249 342.959 365.258C342.396 365.261 341.838 365.149 341.319 364.929C340.801 364.709 340.332 364.387 339.942 363.98C339.552 363.574 339.249 363.093 339.05 362.566C338.852 362.039 338.763 361.477 338.789 360.914C338.858 359.747 339.367 358.65 340.214 357.844C341.06 357.038 342.181 356.583 343.35 356.57C343.914 356.563 344.474 356.672 344.994 356.891C345.515 357.109 345.985 357.431 346.376 357.839C346.767 358.246 347.07 358.729 347.267 359.258C347.464 359.787 347.55 360.35 347.52 360.914Z" fill="#33383A"/>
<path d="M367.01 360.914C366.941 362.081 366.431 363.178 365.585 363.984C364.738 364.79 363.618 365.245 362.449 365.258C361.886 365.261 361.328 365.149 360.809 364.929C360.291 364.709 359.822 364.387 359.432 363.98C359.042 363.574 358.739 363.093 358.541 362.566C358.342 362.038 358.253 361.477 358.279 360.914C358.348 359.747 358.858 358.65 359.704 357.844C360.55 357.038 361.671 356.583 362.84 356.57C363.404 356.565 363.962 356.676 364.482 356.895C365.001 357.114 365.471 357.436 365.861 357.843C366.252 358.25 366.555 358.732 366.753 359.26C366.95 359.788 367.038 360.351 367.01 360.914Z" fill="#33383A"/>
<path d="M386.616 360.914C386.546 362.081 386.037 363.178 385.191 363.984C384.344 364.79 383.224 365.245 382.055 365.258C381.49 365.265 380.931 365.156 380.41 364.937C379.89 364.719 379.419 364.397 379.029 363.989C378.638 363.582 378.335 363.099 378.138 362.57C377.941 362.041 377.855 361.478 377.885 360.914C377.951 359.746 378.459 358.647 379.306 357.84C380.153 357.033 381.276 356.579 382.446 356.57C383.01 356.565 383.568 356.676 384.088 356.895C384.607 357.114 385.077 357.436 385.467 357.843C385.858 358.25 386.161 358.732 386.358 359.26C386.556 359.788 386.644 360.351 386.616 360.914Z" fill="#33383A"/>
<path d="M383.653 183.962C389.713 178.035 390.035 168.536 384.371 162.744C378.707 156.952 369.202 157.061 363.142 162.988C357.081 168.914 356.759 178.414 362.423 184.206C368.087 189.998 377.592 189.889 383.653 183.962Z" fill="#017E3C"/>
<path d="M401.878 207.687C398.27 212.413 393.627 216.25 388.306 218.903C382.985 221.556 377.126 222.955 371.18 222.992C365.414 223.041 359.725 221.67 354.614 219.001C349.503 216.332 345.127 212.446 341.873 207.687C348.91 200.678 360.045 196.103 372.382 196.103C384.719 196.103 395.463 200.678 401.878 207.687Z" fill="#017E3C"/>
<path opacity="0.1" d="M383.653 183.962C389.713 178.035 390.035 168.536 384.371 162.744C378.707 156.952 369.202 157.061 363.142 162.988C357.081 168.914 356.759 178.414 362.423 184.206C368.087 189.998 377.592 189.889 383.653 183.962Z" fill="white"/>
<path opacity="0.1" d="M401.878 207.687C398.27 212.413 393.627 216.25 388.306 218.903C382.985 221.556 377.126 222.955 371.18 222.992C365.414 223.041 359.725 221.67 354.614 219.001C349.503 216.332 345.127 212.446 341.873 207.687C348.91 200.678 360.045 196.103 372.382 196.103C384.719 196.103 395.463 200.678 401.878 207.687Z" fill="white"/>
<path d="M188.834 307.613C187.458 310.625 186.01 313.941 184.75 317.155C183.491 320.37 182.202 323.686 181.087 326.987C178.81 333.494 177.077 340.177 175.903 346.97L175.584 349.098C175.554 349.463 175.588 349.831 175.686 350.184C176.028 351.384 176.566 352.52 177.279 353.544C179.138 356.195 181.295 358.624 183.708 360.784C186.251 363.15 188.919 365.378 191.701 367.459C194.481 369.602 197.406 371.687 200.287 373.656L197.58 378.739C190.699 375.741 184.168 371.997 178.104 367.575C174.869 365.215 171.949 362.451 169.416 359.35C167.915 357.504 166.744 355.412 165.955 353.167C165.497 351.765 165.262 350.299 165.26 348.823C165.26 348.476 165.26 347.969 165.26 347.723V347.013L165.405 345.565C166.235 338.021 167.821 330.58 170.14 323.353C171.269 319.791 172.471 316.243 173.847 312.782C175.222 309.322 176.642 305.933 178.394 302.415L188.834 307.613Z" fill="#88716D"/>
<path d="M198.246 372.759L208.483 367.575L205.833 378.811C205.833 378.811 198.81 380.781 195.552 377.363L198.246 372.759Z" fill="#88716D"/>
<path d="M217.852 369.414L215.129 378.71L205.833 378.811L208.483 367.575L217.852 369.414Z" fill="#88716D"/>
<path d="M232.303 253.4C232.85 255.407 233.612 257.349 234.576 259.192C234.294 259.511 233.932 259.748 233.527 259.878C233.121 260.008 232.688 260.026 232.274 259.93L232.303 253.4Z" fill="#DF5753"/>
<path d="M231.999 253.487C232.598 253.487 233.085 252.741 233.085 251.822C233.085 250.902 232.598 250.156 231.999 250.156C231.399 250.156 230.913 250.902 230.913 251.822C230.913 252.741 231.399 253.487 231.999 253.487Z" fill="#33383A"/>
<path d="M231.68 250.214L233.881 249.592C233.881 249.592 232.809 251.3 231.68 250.214Z" fill="#33383A"/>
<path d="M204.023 264.028C205.341 270.762 206.659 283.113 201.938 287.616C201.938 287.616 203.792 294.451 216.317 294.451C230.087 294.451 222.891 287.616 222.891 287.616C215.376 285.821 215.564 280.246 216.881 275.004L204.023 264.028Z" fill="#88716D"/>
<path d="M200.36 248.68C201.055 259.93 201.113 264.709 206.789 270.486C215.347 279.174 229.016 275.873 231.694 264.694C234.113 254.558 232.578 237.877 221.558 233.403C219.14 232.407 216.507 232.044 213.909 232.349C211.31 232.654 208.833 233.616 206.711 235.146C204.588 236.675 202.891 238.721 201.78 241.089C200.669 243.457 200.18 246.07 200.36 248.68Z" fill="#88716D"/>
<path d="M201.475 236.024C195.828 238.08 188.298 236.545 191.252 253.965C194.38 272.412 189.572 278.479 189.572 278.479C189.572 278.479 210.988 283.041 232.853 278.204C232.853 278.204 226.178 266.533 228.046 257.932C230.435 247.072 228.552 243.061 228.552 243.061C228.552 243.061 209.41 233.128 201.475 236.024Z" fill="#33383A"/>
<path d="M225.367 254.544C225.373 256.683 225.985 258.777 227.133 260.582C228.668 262.928 230.478 262.03 230.927 259.54C231.332 257.353 231.028 253.487 229.074 251.981C227.119 250.475 225.396 251.952 225.367 254.544Z" fill="#88716D"/>
<path d="M196.566 237.921C194.944 233.36 202.677 226.337 219.039 229.233C235.401 232.129 236.111 245.755 236.111 245.755L232.809 241.816L232.954 245.957L216.143 249.186L196.566 237.921Z" fill="#33383A"/>
<path d="M197.956 288.384C197.859 287.723 198.025 287.05 198.417 286.509C198.809 285.968 199.397 285.601 200.056 285.488C205.153 284.648 216.737 282.939 222.558 283.75C226.902 284.358 228.031 286.878 228.219 288.948C228.249 289.311 228.2 289.676 228.077 290.018C227.954 290.36 227.759 290.672 227.505 290.933C227.251 291.193 226.945 291.397 226.606 291.529C226.267 291.661 225.904 291.719 225.54 291.7L200.374 290.57C199.781 290.54 199.216 290.306 198.776 289.908C198.335 289.509 198.045 288.971 197.956 288.384Z" fill="#017E3C"/>
<path opacity="0.6" d="M197.956 288.384C197.859 287.723 198.025 287.05 198.417 286.509C198.809 285.968 199.397 285.601 200.056 285.488C205.153 284.648 216.737 282.939 222.558 283.75C226.902 284.358 228.031 286.878 228.219 288.948C228.249 289.311 228.2 289.676 228.077 290.018C227.954 290.36 227.759 290.672 227.505 290.933C227.251 291.193 226.945 291.397 226.606 291.529C226.267 291.661 225.904 291.719 225.54 291.7L200.374 290.57C199.781 290.54 199.216 290.306 198.776 289.908C198.335 289.509 198.045 288.971 197.956 288.384Z" fill="black"/>
<path d="M212.508 541.349L221.848 547.836L237.472 526.652L228.132 520.18L212.508 541.349Z" fill="#88716D"/>
<path d="M190.731 540.929L200.591 546.548L214.42 524.147L204.559 518.529L190.731 540.929Z" fill="#88716D"/>
<path d="M237.458 526.652L229.407 537.57L220.067 531.097L228.118 520.179L237.458 526.652Z" fill="#CF6F64"/>
<path d="M204.544 518.529L214.42 524.161L207.296 535.702L197.42 530.069L204.544 518.529Z" fill="#CF6F64"/>
<path d="M220.386 359.104C220.386 359.104 256.846 405.049 249.997 448.996C244.48 484.486 212.48 532.545 212.48 532.545L197.435 525.074C208.039 503.825 217.089 481.835 224.512 459.277C226.802 452.273 227.47 444.841 226.466 437.542C225.463 430.242 222.814 423.266 218.72 417.14C200.244 390.164 170.647 406.222 190.557 359.104H220.386Z" fill="#017E3C"/>
<path opacity="0.6" d="M220.386 359.104C220.386 359.104 256.846 405.049 249.997 448.996C244.48 484.486 212.48 532.545 212.48 532.545L197.435 525.074C208.039 503.825 217.089 481.835 224.512 459.277C226.802 452.273 227.47 444.841 226.466 437.542C225.463 430.242 222.814 423.266 218.72 417.14C200.244 390.164 170.647 406.222 190.557 359.104H220.386Z" fill="black"/>
<path opacity="0.4" d="M238.268 388.614L232.969 383.344C232.969 383.763 243.235 447.142 246.117 464.953C247.817 459.75 249.119 454.425 250.012 449.025C253.4 427.464 246.319 405.44 238.268 388.614Z" fill="black"/>
<path d="M236.661 359.104C236.661 359.104 280.564 416.85 281.81 451.472C282.838 480.432 234.026 536.542 234.026 536.542L219.835 527.362C219.835 527.362 248.404 487.513 255.601 454.962C252.821 422.7 194.032 359.104 194.032 359.104H236.661Z" fill="#017E3C"/>
<path opacity="0.6" d="M236.661 359.104C236.661 359.104 280.564 416.85 281.81 451.472C282.838 480.432 234.026 536.542 234.026 536.542L219.835 527.362C219.835 527.362 248.404 487.513 255.601 454.962C252.821 422.7 194.032 359.104 194.032 359.104H236.661Z" fill="black"/>
<path d="M182.347 290.194C177.655 291.309 173.152 308.366 173.152 308.366L191.498 320.616C191.498 320.616 197.609 307.121 195.466 301.213C193.25 295.059 188.24 288.789 182.347 290.194Z" fill="#017E3C"/>
<path opacity="0.2" d="M185.938 301.184L184.663 316.055L191.484 320.631C193.367 316.391 194.761 311.951 195.639 307.396L185.938 301.184Z" fill="black"/>
<path d="M242.091 290.527C242.091 290.527 247.507 292.424 236.661 359.09H190.528C191.31 340.266 191.324 328.682 182.347 290.194C188.806 288.862 195.354 288.001 201.938 287.616C208.913 287.116 215.915 287.116 222.891 287.616C231.897 288.442 242.091 290.527 242.091 290.527Z" fill="#017E3C"/>
<path d="M246.783 301.184C247.825 304.08 248.926 307.193 250.084 310.191C251.242 313.188 252.343 316.272 253.516 319.313L257.063 328.406L257.961 330.68L258.425 331.809L258.642 332.374C258.642 332.475 258.642 332.475 258.642 332.461C258.377 332.088 258.03 331.781 257.628 331.563C257.055 331.226 256.41 331.032 255.746 330.998C255.194 330.981 254.646 331.085 254.138 331.302C253.472 331.606 253.472 331.737 253.487 331.722C253.607 331.626 253.714 331.514 253.805 331.389C254.607 330.337 255.301 329.207 255.876 328.015C256.557 326.683 257.208 325.264 257.86 323.831C259.134 320.935 260.307 317.937 261.48 314.911C262.653 311.885 263.768 308.829 264.854 305.745L268.155 296.507L273.73 297.955C272.629 304.558 271.21 310.987 269.502 317.532C268.676 320.79 267.706 324.019 266.606 327.277C266.056 328.913 265.447 330.535 264.752 332.2C264.028 334.007 263.136 335.743 262.088 337.384C261.703 337.936 261.277 338.459 260.814 338.948C260.074 339.746 259.177 340.383 258.178 340.816C257.292 341.196 256.333 341.374 255.369 341.337C254.29 341.297 253.239 340.983 252.314 340.425C251.223 339.744 250.318 338.804 249.679 337.688C249.461 337.312 249.273 336.935 249.143 336.66L248.868 336.11L248.318 334.98L247.217 332.736C245.769 329.724 244.321 326.683 243.061 323.628C241.802 320.573 240.469 317.474 239.224 314.361C237.979 311.248 236.864 308.134 235.807 304.775L246.783 301.184Z" fill="#88716D"/>
<path d="M242.091 290.527C247.637 291.844 253.878 308.236 253.878 308.236L237.385 322.267C237.385 322.267 226.713 304.399 228.871 298.505C231.115 292.366 234.851 288.804 242.091 290.527Z" fill="#017E3C"/>
<path d="M270.776 291.323L276.568 286.487L280.593 292.757L277.625 297.984C277.625 297.984 272.905 302.328 268.734 300.112C268.072 298.625 267.914 296.962 268.282 295.376C268.651 293.79 269.526 292.367 270.776 291.323Z" fill="#88716D"/>
<path d="M287.023 286.501L286.588 288.08L277.422 289.614L276.525 286.487L287.023 286.501Z" fill="#88716D"/>
<path d="M235.155 537.28L218.619 526.594L221.587 521.439L240.165 532.864L235.155 537.28Z" fill="#017E3C"/>
<path d="M207.064 545.795C205.613 545.617 204.219 545.123 202.981 544.347C202.93 544.329 202.885 544.296 202.854 544.251C202.823 544.207 202.806 544.155 202.806 544.101C202.806 544.046 202.823 543.994 202.854 543.949C202.885 543.905 202.93 543.872 202.981 543.854C203.43 543.71 207.325 542.508 208.454 543.434C208.581 543.54 208.678 543.677 208.734 543.833C208.79 543.988 208.803 544.155 208.773 544.318C208.753 544.578 208.666 544.83 208.522 545.048C208.377 545.265 208.18 545.443 207.947 545.563C207.676 545.711 207.373 545.79 207.064 545.795ZM203.806 544.202C205.616 545.129 207.064 545.462 207.759 545.114C207.91 545.03 208.038 544.909 208.129 544.762C208.22 544.615 208.272 544.447 208.28 544.274C208.28 544.043 208.28 543.941 208.15 543.883C207.542 543.391 205.37 543.767 203.777 544.202H203.806Z" fill="#33383A"/>
<path d="M203.082 544.448C203.006 544.447 202.933 544.416 202.879 544.361C202.858 544.321 202.846 544.276 202.846 544.231C202.846 544.185 202.858 544.141 202.879 544.101C202.879 543.97 203.82 540.828 205.297 540.119C205.486 540.032 205.691 539.988 205.898 539.988C206.106 539.988 206.311 540.032 206.499 540.119C206.703 540.183 206.879 540.313 206.999 540.489C207.12 540.665 207.179 540.876 207.165 541.089C207.064 542.392 204.414 544.187 203.198 544.491L203.082 544.448ZM205.891 540.495C205.75 540.499 205.612 540.534 205.486 540.596C204.588 541.031 203.849 542.725 203.487 543.753C204.762 543.217 206.514 541.798 206.572 541.002C206.572 540.871 206.572 540.712 206.239 540.567C206.13 540.509 206.013 540.47 205.891 540.452V540.495Z" fill="#33383A"/>
<path d="M227.727 552.05C226.091 552.05 223.817 549.95 222.572 548.662C222.54 548.617 222.523 548.564 222.523 548.51C222.523 548.455 222.54 548.402 222.572 548.358C222.601 548.311 222.641 548.273 222.69 548.247C222.738 548.222 222.793 548.21 222.847 548.213C223.426 548.213 228.451 548.966 229.16 550.385C229.236 550.512 229.275 550.657 229.275 550.805C229.275 550.952 229.236 551.097 229.16 551.225C229.054 551.446 228.893 551.636 228.693 551.778C228.493 551.92 228.26 552.008 228.017 552.036L227.727 552.05ZM223.528 548.864C225.352 550.631 226.96 551.616 227.872 551.5C228.032 551.479 228.184 551.419 228.315 551.326C228.446 551.232 228.553 551.108 228.625 550.964C228.657 550.915 228.674 550.857 228.674 550.798C228.674 550.738 228.657 550.68 228.625 550.631C228.248 549.849 225.569 549.183 223.528 548.864Z" fill="#33383A"/>
<path d="M223.687 548.792C223.362 548.801 223.037 548.777 222.717 548.72C222.672 548.713 222.63 548.695 222.594 548.667C222.559 548.639 222.531 548.602 222.514 548.56C222.493 548.518 222.481 548.471 222.481 548.423C222.481 548.375 222.493 548.328 222.514 548.285C222.601 548.184 224.556 545.824 226.409 545.664C226.934 545.624 227.454 545.79 227.857 546.128C228.422 546.62 228.393 547.054 228.248 547.329C227.886 548.314 225.381 548.792 223.687 548.792ZM223.311 548.256C224.932 548.343 227.524 547.807 227.857 547.098C227.857 547.098 227.973 546.866 227.597 546.548C227.447 546.417 227.272 546.319 227.083 546.259C226.893 546.2 226.694 546.179 226.496 546.2C225.248 546.549 224.136 547.271 223.311 548.271V548.256Z" fill="#33383A"/>
<path d="M203.473 542.884L191.194 539.409C190.982 539.345 190.754 539.361 190.554 539.455C190.354 539.548 190.195 539.712 190.108 539.916L185.967 549.226C185.869 549.465 185.824 549.721 185.833 549.979C185.842 550.236 185.905 550.489 186.018 550.72C186.132 550.951 186.293 551.155 186.491 551.32C186.69 551.484 186.92 551.605 187.168 551.674C191.512 552.803 193.598 553.122 198.999 554.671C202.329 555.598 207.078 557.321 211.669 558.624C216.259 559.927 217.794 555.453 216.013 554.497C207.962 550.24 207.325 547.257 205.124 544.072C204.729 543.495 204.145 543.074 203.473 542.884Z" fill="#017E3C"/>
<path d="M222.905 546.967L212.422 539.727C212.244 539.598 212.025 539.538 211.806 539.56C211.587 539.581 211.384 539.682 211.234 539.843L204.284 547.315C204.114 547.508 203.988 547.735 203.913 547.981C203.838 548.227 203.817 548.485 203.85 548.74C203.882 548.995 203.969 549.24 204.104 549.458C204.239 549.677 204.419 549.865 204.631 550.008C208.324 552.484 210.235 553.484 214.854 556.684C217.75 558.653 223.354 563.026 227.264 565.748C231.173 568.47 234.084 564.734 232.694 563.258C226.467 556.611 225.106 552.441 224.078 548.662C223.9 547.976 223.484 547.376 222.905 546.967Z" fill="#017E3C"/>
<path d="M214.405 533.501L195.509 524.104L197.464 518.978L217.649 528.882L214.405 533.501Z" fill="#017E3C"/>
<path d="M189.833 356.382L188.24 360.552C188.081 360.871 188.457 361.204 188.993 361.204H236.893C237.313 361.204 237.66 361.001 237.689 360.74L238.095 356.599C238.095 356.324 237.762 356.078 237.313 356.078H190.586C190.445 356.064 190.303 356.085 190.172 356.138C190.041 356.191 189.925 356.275 189.833 356.382Z" fill="#017E3C"/>
<path opacity="0.4" d="M189.833 356.382L188.24 360.552C188.081 360.871 188.457 361.204 188.993 361.204H236.893C237.313 361.204 237.66 361.001 237.689 360.74L238.095 356.599C238.095 356.324 237.762 356.078 237.313 356.078H190.586C190.445 356.064 190.303 356.085 190.172 356.138C190.041 356.191 189.925 356.275 189.833 356.382Z" fill="white"/>
<path d="M197.377 361.609H196.117C195.871 361.609 195.683 361.479 195.697 361.319L196.291 355.947C196.291 355.803 196.523 355.672 196.769 355.672H198.028C198.275 355.672 198.463 355.803 198.448 355.947L197.855 361.319C197.84 361.479 197.623 361.609 197.377 361.609Z" fill="#017E3C"/>
<path d="M226.916 361.609H225.671C225.425 361.609 225.236 361.479 225.251 361.319L225.83 355.947C225.83 355.803 226.076 355.672 226.322 355.672H227.568C227.814 355.672 228.017 355.803 227.988 355.947L227.408 361.319C227.336 361.479 227.177 361.609 226.916 361.609Z" fill="#017E3C"/>
<g style="mix-blend-mode:multiply">
<path d="M196.276 606.828C217.701 606.828 235.068 605.57 235.068 604.019C235.068 602.467 217.701 601.21 196.276 601.21C174.852 601.21 157.484 602.467 157.484 604.019C157.484 605.57 174.852 606.828 196.276 606.828Z" fill="#F5F5F5"/>
</g>
<path d="M219.908 600.051C213.044 598.053 205.428 595.49 200.823 592.811C200.693 592.724 200.548 592.681 200.418 592.609V561.534H214.304C215.358 561.472 216.349 561.009 217.073 560.241C217.797 559.472 218.201 558.456 218.201 557.4C218.201 556.344 217.797 555.328 217.073 554.56C216.349 553.791 215.358 553.329 214.304 553.266H200.49V411.623H192.15V553.266H178.35C177.787 553.233 177.222 553.315 176.692 553.508C176.161 553.701 175.676 554 175.265 554.387C174.854 554.774 174.527 555.241 174.303 555.759C174.079 556.277 173.964 556.836 173.964 557.4C173.964 557.965 174.079 558.523 174.303 559.042C174.527 559.56 174.854 560.027 175.265 560.414C175.676 560.801 176.161 561.1 176.692 561.293C177.222 561.486 177.787 561.568 178.35 561.534H192.15V592.565C192.019 592.565 191.889 592.681 191.759 592.768C187.082 595.49 179.523 598.053 172.66 600.008C172.196 600.148 171.798 600.45 171.537 600.858C171.277 601.266 171.171 601.754 171.239 602.234C171.308 602.713 171.545 603.153 171.909 603.472C172.273 603.792 172.74 603.97 173.224 603.975H219.343C219.806 603.944 220.244 603.754 220.584 603.439C220.924 603.123 221.146 602.701 221.212 602.242C221.278 601.782 221.184 601.314 220.947 600.916C220.71 600.517 220.343 600.212 219.908 600.051Z" fill="#E0E0E0"/>
<path d="M222.036 397.201H170.545C166.403 397.201 163.045 400.559 163.045 404.701V420.007C163.045 424.149 166.403 427.508 170.545 427.508H222.036C226.179 427.508 229.537 424.149 229.537 420.007V404.701C229.537 400.559 226.179 397.201 222.036 397.201Z" fill="#017E3C"/>
<path d="M170.068 427.522V430.157C170.068 432.329 172.428 434.096 175.324 434.096H217.316C220.212 434.096 222.572 432.329 222.572 430.157V427.522H170.068Z" fill="#017E3C"/>
<path opacity="0.3" d="M170.068 427.522V430.157C170.068 432.329 172.428 434.096 175.324 434.096H217.316C220.212 434.096 222.572 432.329 222.572 430.157V427.522H170.068Z" fill="white"/>
</svg>
